<?xml version="1.0" encoding="UTF-8"?>
<svg width="752pt" height="752pt" version="1.1" viewBox="0 0 752 752" xmlns="http://www.w3.org/2000/svg">
 <path d="m598.11 239.61c-2.3672-3.3164-6.1562-5.2109-10.418-5.2109l-340.5 0.003906-9.9453-41.203c-1.4219-6.1562-6.6289-9.9453-12.785-9.9453h-60.145c-7.1055 0-13.262 5.6836-13.262 13.262s6.1562 13.262 13.262 13.262h49.727l71.512 295.99c1.4219 6.1562 6.6289 9.9453 12.785 9.9453h17.523c-7.1055 5.2109-12.312 13.734-12.312 23.68 0 16.574 13.262 29.836 29.836 29.836 16.574 0 29.836-13.262 29.836-29.836 0-9.9453-5.2109-17.996-12.312-23.68h119.82c-7.1055 5.2109-12.312 13.734-12.312 23.68 0 16.574 13.262 29.836 29.836 29.836 16.574 0 29.836-13.262 29.836-29.836 0-9.9453-5.2109-17.996-12.312-23.68h8.5234c7.1055 0 13.262-5.6836 13.262-13.262 0-7.1055-6.1562-13.262-13.262-13.262h-205.54l-7.5781-30.781h238.68c6.1562 0 11.367-4.2617 12.785-9.9453l47.832-197.48c0.94922-4.2617 0.003907-8.5234-2.3672-11.367zm-219.27 126.45-4.7344-39.309h76.719l-4.7344 39.309zm63.934 26.523-4.7344 39.309-51.621-0.003907-4.7344-39.309zm-173.33-65.828h78.141l4.7344 39.309-73.402-0.003906zm101.35-26.523-4.7344-39.309h92.348l-4.7344 39.309zm-31.258-39.305 4.7344 39.309-81.453-0.003907-9.4727-39.309zm-54.461 131.66h70.09l4.7344 39.309-65.352-0.003907zm179.49 39.305 4.7344-39.309h69.617l-9.4727 39.309zm80.98-65.828h-72.93l4.7344-39.309h77.668zm15.629-65.828h-80.984l4.7344-39.309h85.719z"/>
</svg>
