<?xml version="1.0" encoding="UTF-8"?>
<svg width="752pt" height="752pt" version="1.1" viewBox="0 0 752 752" xmlns="http://www.w3.org/2000/svg">
 <g>
  <path d="m585.59 557c-9.8203-9.6797-20.426-14.809-31.531-15.238-15.207-0.63672-24.852 7.9023-32.574 14.727-6.3828 5.6367-10.246 8.832-15.492 8.9414-5.3359 0.17188-8.9414-2.8398-15.133-8.5234-6.9883-6.3945-16.539-15.156-31.977-15.156-15.293 0-24.75 8.6289-31.656 14.934-6.293 5.75-9.8477 8.7461-15.703 8.7461-5.8516 0-9.4102-2.9961-15.703-8.7461-6.9062-6.3047-16.363-14.934-31.656-14.934-15.305 0-24.762 8.6328-31.672 14.941-6.293 5.7422-9.8438 8.7383-15.684 8.7383-5.8203 0-9.375-2.9805-15.652-8.6914-7.2734-6.6094-16.324-14.836-31.594-14.988-15.945 0.015625-26 8.7969-33.449 15.332-6.0391 5.2969-9.6797 8.2969-14.148 8.3477h-0.10938c-10.027 0-23.348-14.891-36.566-40.891-2.9648-5.8242-10.098-8.1445-15.918-5.1836-5.8281 2.9648-8.1523 10.09-5.1875 15.922 18.414 36.219 37.277 53.832 57.648 53.832h0.38672c13.461-0.14844 22.359-7.9531 29.504-14.223 6.8789-6.0273 11.102-9.457 17.434-9.457h0.17578c5.9648 0.058594 9.5547 3.0703 15.891 8.832 7.2852 6.6172 16.34 14.848 31.586 14.848 15.293 0 24.75-8.6289 31.652-14.934 6.293-5.75 9.8516-8.7461 15.703-8.7461 5.8398 0 9.3945 2.9961 15.691 8.7383 6.9062 6.3086 16.363 14.941 31.668 14.941 15.305 0 24.766-8.6328 31.672-14.941 6.2969-5.7422 9.8477-8.7383 15.688-8.7383 5.9531 0 9.5703 3.0586 15.969 8.9336 7.1875 6.5859 16.094 14.754 30.793 14.754 0.27734 0 0.55859-0.003906 0.84766-0.007813 14.172-0.29688 23.316-8.3789 30.672-14.871 6.5352-5.7734 10.527-8.9883 15.98-8.8164 5.0195 0.19141 10.344 3.0352 15.824 8.4375 4.6484 4.5859 12.148 4.5391 16.742-0.11719s4.5312-12.152-0.12109-16.742z"/>
  <path d="m245.77 470.72-35.516-35.52-35.52 59.199 11.84 11.836z"/>
  <path d="m268.01 467.25c4.6211 4.625 12.117 4.625 16.746 0l20.207-20.211-71.039-71.039-20.211 20.215c-4.6211 4.6211-4.6211 12.117 0 16.746z"/>
  <path d="m323.74 440.11c9.2461 9.25 26.27 9.25 35.516 0l151.88-151.88c9.25-9.25 9.25-24.238 0-33.488l-84.902-84.91c-9.25-9.25-24.238-9.25-33.488 0l-151.89 151.89c-9.25 9.25-9.25 24.238 0 33.484z"/>
 </g>
</svg>
